<?xml version="1.0" encoding="UTF-8" standalone="no"?>
<!-- Created with Inkscape (http://www.inkscape.org/) -->

<svg
   xmlns:dc="http://purl.org/dc/elements/1.1/"
   xmlns:cc="http://creativecommons.org/ns#"
   xmlns:rdf="http://www.w3.org/1999/02/22-rdf-syntax-ns#"
   xmlns:svg="http://www.w3.org/2000/svg"
   xmlns="http://www.w3.org/2000/svg"
   xmlns:xlink="http://www.w3.org/1999/xlink"
   xmlns:sodipodi="http://sodipodi.sourceforge.net/DTD/sodipodi-0.dtd"
   xmlns:inkscape="http://www.inkscape.org/namespaces/inkscape"
   width="210mm"
   height="297mm"
   id="svg2"
   version="1.1"
   inkscape:version="0.48.4 r9939"
   sodipodi:docname="clouds.svg">
  <defs
     id="defs4">
    <linearGradient
       id="linearGradient4341">
      <stop
         style="stop-color:#53a1b9;stop-opacity:1;"
         offset="0"
         id="stop4343" />
      <stop
         style="stop-color:#d1e6ec;stop-opacity:1;"
         offset="1"
         id="stop4345" />
    </linearGradient>
    <linearGradient
       inkscape:collect="always"
       xlink:href="#linearGradient4341"
       id="linearGradient4357"
       gradientUnits="userSpaceOnUse"
       gradientTransform="translate(-161,0)"
       x1="477"
       y1="682.36218"
       x2="477"
       y2="629.13239" />
    <linearGradient
       inkscape:collect="always"
       xlink:href="#linearGradient4341-5"
       id="linearGradient4357-5"
       gradientUnits="userSpaceOnUse"
       gradientTransform="translate(-161,0)"
       x1="477"
       y1="682.36218"
       x2="477"
       y2="629.13239" />
    <linearGradient
       id="linearGradient4341-5">
      <stop
         style="stop-color:#53a1b9;stop-opacity:1;"
         offset="0"
         id="stop4343-4" />
      <stop
         style="stop-color:#d1e6ec;stop-opacity:1;"
         offset="1"
         id="stop4345-0" />
    </linearGradient>
    <linearGradient
       y2="629.13239"
       x2="477"
       y1="682.36218"
       x1="477"
       gradientTransform="translate(-151.64063,164.48718)"
       gradientUnits="userSpaceOnUse"
       id="linearGradient4397"
       xlink:href="#linearGradient4341-5"
       inkscape:collect="always" />
    <linearGradient
       inkscape:collect="always"
       xlink:href="#linearGradient4341-5"
       id="linearGradient4417"
       gradientUnits="userSpaceOnUse"
       gradientTransform="translate(-151.64063,164.48718)"
       x1="477"
       y1="682.36218"
       x2="477"
       y2="629.13239" />
    <linearGradient
       inkscape:collect="always"
       xlink:href="#linearGradient4341-5"
       id="linearGradient4420"
       gradientUnits="userSpaceOnUse"
       gradientTransform="translate(-362.39063,369.97437)"
       x1="477"
       y1="682.36218"
       x2="477"
       y2="629.13239" />
    <linearGradient
       inkscape:collect="always"
       xlink:href="#linearGradient4341"
       id="linearGradient4422"
       gradientUnits="userSpaceOnUse"
       gradientTransform="translate(-162.875,369.98718)"
       x1="477"
       y1="682.36218"
       x2="477"
       y2="629.13239" />
    <linearGradient
       inkscape:collect="always"
       xlink:href="#linearGradient4341-5-4"
       id="linearGradient4420-3"
       gradientUnits="userSpaceOnUse"
       gradientTransform="translate(-362.39063,369.97437)"
       x1="477"
       y1="682.36218"
       x2="477"
       y2="629.13239" />
    <linearGradient
       id="linearGradient4341-5-4">
      <stop
         style="stop-color:#2c6381;stop-opacity:1;"
         offset="0"
         id="stop4343-4-2" />
      <stop
         style="stop-color:#d1e6ec;stop-opacity:1;"
         offset="1"
         id="stop4345-0-4" />
    </linearGradient>
    <linearGradient
       y2="629.13239"
       x2="477"
       y1="682.36218"
       x1="477"
       gradientTransform="matrix(-1,0,0,1,916.39063,369.97438)"
       gradientUnits="userSpaceOnUse"
       id="linearGradient4439"
       xlink:href="#linearGradient4341-5-4"
       inkscape:collect="always" />
    <linearGradient
       inkscape:collect="always"
       xlink:href="#linearGradient4341-2"
       id="linearGradient4422-5"
       gradientUnits="userSpaceOnUse"
       gradientTransform="translate(-162.875,369.98718)"
       x1="477"
       y1="682.36218"
       x2="477"
       y2="629.13239" />
    <linearGradient
       id="linearGradient4341-2">
      <stop
         style="stop-color:#53a1b9;stop-opacity:1;"
         offset="0"
         id="stop4343-3" />
      <stop
         style="stop-color:#d1e6ec;stop-opacity:1;"
         offset="1"
         id="stop4345-1" />
    </linearGradient>
    <linearGradient
       y2="629.13239"
       x2="477"
       y1="682.36218"
       x1="477"
       gradientTransform="matrix(-1.3628159,0,0,1.3628159,805.96862,122.3932)"
       gradientUnits="userSpaceOnUse"
       id="linearGradient4474"
       xlink:href="#linearGradient4341-5-4"
       inkscape:collect="always" />
    <linearGradient
       inkscape:collect="always"
       xlink:href="#linearGradient4341-5-4"
       id="linearGradient4506"
       x1="272"
       y1="1054.8009"
       x2="272"
       y2="943.53748"
       gradientUnits="userSpaceOnUse"
       gradientTransform="matrix(1,0,0,0.89932584,0,105.94697)" />
    <linearGradient
       inkscape:collect="always"
       xlink:href="#linearGradient4341-5-4-3"
       id="linearGradient4506-8"
       x1="272"
       y1="1054.8009"
       x2="272"
       y2="943.53748"
       gradientUnits="userSpaceOnUse"
       gradientTransform="matrix(1,0,0,0.89932584,0,105.94697)" />
    <linearGradient
       id="linearGradient4341-5-4-3">
      <stop
         style="stop-color:#2c6381;stop-opacity:1;"
         offset="0"
         id="stop4343-4-2-5" />
      <stop
         style="stop-color:#d1e6ec;stop-opacity:1;"
         offset="1"
         id="stop4345-0-4-4" />
    </linearGradient>
    <linearGradient
       y2="943.53748"
       x2="272"
       y1="1054.8009"
       x1="272"
       gradientTransform="matrix(1,0,0,0.89932584,0,105.93414)"
       gradientUnits="userSpaceOnUse"
       id="linearGradient4528"
       xlink:href="#linearGradient4341-5-4-3"
       inkscape:collect="always" />
    <linearGradient
       inkscape:collect="always"
       xlink:href="#linearGradient4341"
       id="linearGradient4547"
       gradientUnits="userSpaceOnUse"
       gradientTransform="translate(-162.875,369.97436)"
       x1="477"
       y1="682.36218"
       x2="477"
       y2="629.13239" />
    <linearGradient
       inkscape:collect="always"
       xlink:href="#linearGradient4341-7"
       id="linearGradient4547-8"
       gradientUnits="userSpaceOnUse"
       gradientTransform="translate(-162.875,369.97436)"
       x1="477"
       y1="682.36218"
       x2="477"
       y2="629.13239" />
    <linearGradient
       id="linearGradient4341-7">
      <stop
         style="stop-color:#53a1b9;stop-opacity:1;"
         offset="0"
         id="stop4343-9" />
      <stop
         style="stop-color:#d1e6ec;stop-opacity:1;"
         offset="1"
         id="stop4345-4" />
    </linearGradient>
    <linearGradient
       y2="629.13239"
       x2="477"
       y1="682.36218"
       x1="477"
       gradientTransform="matrix(-1.5,0,0,1.5,1075.3125,28.780395)"
       gradientUnits="userSpaceOnUse"
       id="linearGradient4566"
       xlink:href="#linearGradient4341-5-4"
       inkscape:collect="always" />
  </defs>
  <sodipodi:namedview
     id="base"
     pagecolor="#ffffff"
     bordercolor="#666666"
     borderopacity="1.0"
     inkscape:pageopacity="0.0"
     inkscape:pageshadow="2"
     inkscape:zoom="1"
     inkscape:cx="366.25584"
     inkscape:cy="-77.707985"
     inkscape:document-units="px"
     inkscape:current-layer="layer1"
     showgrid="false"
     showguides="true"
     inkscape:guide-bbox="true"
     inkscape:window-width="1871"
     inkscape:window-height="1056"
     inkscape:window-x="49"
     inkscape:window-y="24"
     inkscape:window-maximized="1">
    <sodipodi:guide
       orientation="0,1"
       position="530,370"
       id="guide3167" />
  </sodipodi:namedview>
  <metadata
     id="metadata7">
    <rdf:RDF>
      <cc:Work
         rdf:about="">
        <dc:format>image/svg+xml</dc:format>
        <dc:type
           rdf:resource="http://purl.org/dc/dcmitype/StillImage" />
        <dc:title></dc:title>
      </cc:Work>
    </rdf:RDF>
  </metadata>
  <g
     inkscape:label="Calque 1"
     inkscape:groupmode="layer"
     id="layer1">
    <path
       style="fill:url(#linearGradient4566);fill-opacity:1;fill-rule:nonzero;stroke:none"
       d="m 635.10938,975.86215 c 11.87824,0 22.06291,7.24773 26.34375,17.57823 2.85126,-1.6326 6.13521,-2.5782 9.65625,-2.5782 9.32089,0 17.10322,6.53985 19.03125,15.28122 2.92513,-1.1692 6.12622,-1.7812 9.46875,-1.7812 2.58883,0 5.09884,0.361 7.45312,1.0782 3.57659,-4.3338 8.98901,-7.07822 15.04688,-7.07822 7.76659,0 14.44215,4.53792 17.57812,11.10932 1.57088,-0.408 3.22329,-0.6093 4.92188,-0.6093 4.42839,0 8.49702,1.4517 11.76562,3.9375 4.66509,-5.1941 11.39841,-8.4375 18.9375,-8.4375 7.45782,0 14.13714,3.1543 18.79688,8.25 3.20748,-1.4534 6.74532,-2.25 10.5,-2.25 10.54038,0 19.55284,6.3939 23.4375,15.5157 0.99685,0.4293 1.9753,0.8952 2.95312,1.3593 l 0,25.125 -390,0 -350.29687,0 -90.70313,0 0,-25.125 c 0.97782,-0.4641 1.95627,-0.93 2.95313,-1.3593 3.88465,-9.1218 12.89712,-15.5157 23.4375,-15.5157 5.94801,0 11.41249,2.0238 15.74999,5.4375 3.08397,-2.4778 6.9861,-3.9375 11.25,-3.9375 6.44184,0 12.0539,3.3972 15.23438,8.4843 3.05628,-6.774 9.85125,-11.4843 17.76563,-11.4843 1.69858,0 3.351,0.2013 4.92187,0.6093 3.13598,-6.5714 9.81153,-11.10932 17.57813,-11.10932 6.05787,0 11.47029,2.74442 15.04687,7.07822 2.35428,-0.7172 4.86429,-1.0782 7.45313,-1.0782 3.34252,0 6.54361,0.612 9.46875,1.7812 1.92802,-8.74137 9.71035,-15.28122 19.03125,-15.28122 3.52104,0 6.80499,0.9456 9.65625,2.5782 4.28083,-10.3305 14.4655,-17.57823 26.34375,-17.57823 11.78274,0 21.86287,7.14558 26.20312,17.34378 0.68295,0.1596 1.38575,0.2934 2.0625,0.46875 2.37287,-1.76595 5.29919,-2.8125 8.48438,-2.8125 2.16682,0 4.20978,0.45105 6.04687,1.3125 2.9513,-1.79205 6.41847,-2.8125 10.125,-2.8125 5.6285,0 10.64949,2.41875 14.20313,6.2343 0.95583,0.1425 1.91164,0.3213 2.8125,0.60945 0.0135,0 0.0327,0 0.0468,0 0.90085,-0.28815 1.85667,-0.46665 2.8125,-0.60945 3.55363,-3.81555 8.57463,-6.2343 14.20312,-6.2343 3.70653,0 7.17371,1.02045 10.125,2.8125 1.8371,-0.86145 3.88005,-1.3125 6.04688,-1.3125 3.18519,0 6.11151,1.04655 8.48437,2.8125 0.67676,-0.17535 1.37955,-0.30915 2.0625,-0.46875 4.34025,-10.1982 14.42039,-17.34378 26.20313,-17.34378 11.87824,0 22.06291,7.24773 26.34375,17.57823 2.85126,-1.6326 6.13521,-2.5782 9.65625,-2.5782 9.32089,0 17.10322,6.53985 19.03125,15.28122 2.92513,-1.1692 6.12622,-1.7812 9.46875,-1.7812 2.58883,0 5.09884,0.361 7.45312,1.0782 3.57659,-4.3338 8.98901,-7.07822 15.04688,-7.07822 7.76659,0 14.44215,4.53792 17.57812,11.10932 1.57088,-0.408 3.22329,-0.6093 4.92188,-0.6093 2.42173,0 4.75356,0.4125 6.89062,1.2187 2.5362,-3.9027 6.89609,-6.4687 11.90625,-6.4687 3.64235,0 6.94949,1.3609 9.46875,3.6093 3.39063,-5.7533 9.61995,-9.60932 16.78125,-9.60932 8.1141,0 15.06273,4.95002 18,12.00002 4.54212,-4.182 10.58918,-6.75 17.25,-6.75 1.30313,0 2.59322,0.093 3.84375,0.2812 2.4386,-7.98777 9.87039,-13.78122 18.65625,-13.78122 6.23961,0 11.75882,2.94015 15.32813,7.5 2.20434,-0.96285 4.61266,-1.5 7.17187,-1.5 5.59188,0 10.57353,2.5152 13.875,6.51572 1.45488,-6.32567 7.10774,-11.01572 13.875,-11.01572 3.18519,0 6.11151,1.04655 8.48438,2.8125 0.67675,-0.17535 1.37955,-0.30915 2.0625,-0.46875 4.34025,-10.1982 14.42038,-17.34378 26.20312,-17.34378 z"
       id="path2985-0"
       inkscape:export-filename="/home/william/workspace/snap-lib/apps/home/images/cloud-back.png"
       inkscape:export-xdpi="77"
       inkscape:export-ydpi="77"
       inkscape:connector-curvature="0" />
    <rect
       style="fill:#3d3d3d;fill-opacity:1;fill-rule:nonzero;stroke:none"
       id="rect4495"
       width="94"
       height="1"
       x="-116"
       y="960.36218" />
    <path
       style="fill:url(#linearGradient4547);fill-opacity:1;fill-rule:nonzero;stroke:none"
       d="m 130.59375,1001.3622 c -7.91883,0 -14.70861,4.8318 -17.5625,11.7188 -1.90084,-1.0884 -4.09014,-1.7188 -6.4375,-1.7188 -6.21393,0 -11.40215,4.3599 -12.6875,10.1875 -1.95009,-0.7795 -4.08415,-1.1875 -6.3125,-1.1875 -1.72589,0 -3.39923,0.2407 -4.96875,0.7188 -2.38439,-2.8892 -5.99267,-4.7188 -10.03125,-4.7188 -5.17773,0 -9.6281,3.0253 -11.71875,7.4062 -1.04725,-0.272 -2.14886,-0.4062 -3.28125,-0.4062 -2.95226,0 -5.664678,0.9678 -7.84375,2.625 -3.110056,-3.4627 -7.598942,-5.625 -12.625,-5.625 -4.971882,0 -9.424762,2.1029 -12.53125,5.5 -2.138321,-0.9689 -4.496879,-1.5 -7,-1.5 -7.02692,0 -13.03523,4.2626 -15.625,10.3438 -0.66457,0.2862 -1.31687,0.5968 -1.96875,0.9062 l 0,16.75 260,0 233.53125,0 60.46875,0 0,-16.75 c -0.65188,-0.3094 -1.30418,-0.62 -1.96875,-0.9062 -2.58977,-6.0812 -8.59808,-10.3438 -15.625,-10.3438 -3.96534,0 -7.60833,1.3492 -10.5,3.625 -2.05598,-1.6519 -4.6574,-2.625 -7.5,-2.625 -4.29456,0 -8.03593,2.2648 -10.15625,5.6562 -2.03752,-4.516 -6.5675,-7.6562 -11.84375,-7.6562 -1.13239,0 -2.234,0.1342 -3.28125,0.4062 -2.09065,-4.3809 -6.54102,-7.4062 -11.71875,-7.4062 -4.03858,0 -7.64686,1.8296 -10.03125,4.7188 -1.56952,-0.4781 -3.24286,-0.7188 -4.96875,-0.7188 -2.22835,0 -4.36241,0.408 -6.3125,1.1875 -1.28535,-5.8276 -6.47357,-10.1875 -12.6875,-10.1875 -2.34736,0 -4.53666,0.6304 -6.4375,1.7188 -2.85389,-6.887 -9.64367,-11.7188 -17.5625,-11.7188 -7.85516,0 -14.57525,4.7637 -17.46875,11.5625 -0.4553,0.1064 -0.92383,0.1956 -1.375,0.3125 -1.58191,-1.1773 -3.53279,-1.875 -5.65625,-1.875 -1.44455,0 -2.80652,0.3007 -4.03125,0.875 -1.96753,-1.1947 -4.27898,-1.875 -6.75,-1.875 -3.75233,0 -7.09966,1.6125 -9.46875,4.1562 -0.63722,0.095 -1.27443,0.2142 -1.875,0.4063 -0.009,0 -0.0218,0 -0.0312,0 -0.60057,-0.1921 -1.23778,-0.3111 -1.875,-0.4063 -2.36909,-2.5437 -5.71642,-4.1562 -9.46875,-4.1562 -2.47102,0 -4.78247,0.6803 -6.75,1.875 -1.22473,-0.5743 -2.5867,-0.875 -4.03125,-0.875 -2.12346,0 -4.07434,0.6977 -5.65625,1.875 -0.45117,-0.1169 -0.9197,-0.2061 -1.375,-0.3125 -2.8935,-6.7988 -9.61359,-11.5625 -17.46875,-11.5625 -7.91883,0 -14.70861,4.8318 -17.5625,11.7188 -1.90084,-1.0884 -4.09014,-1.7188 -6.4375,-1.7188 -6.21393,0 -11.40215,4.3599 -12.6875,10.1875 -1.95009,-0.7795 -4.08415,-1.1875 -6.3125,-1.1875 -1.72589,0 -3.39923,0.2407 -4.96875,0.7188 -2.38439,-2.8892 -5.99267,-4.7188 -10.03125,-4.7188 -5.17773,0 -9.6281,3.0253 -11.71875,7.4062 -1.04725,-0.272 -2.14886,-0.4062 -3.28125,-0.4062 -1.61449,0 -3.16904,0.275 -4.59375,0.8125 -1.6908,-2.6018 -4.59739,-4.3125 -7.9375,-4.3125 -2.42823,0 -4.63299,0.9073 -6.3125,2.4062 -2.26042,-3.8355 -6.4133,-6.4062 -11.1875,-6.4062 -5.4094,0 -10.04182,3.3 -12,8 -3.02808,-2.788 -7.05945,-4.5 -11.5,-4.5 -0.86875,0 -1.72881,0.062 -2.5625,0.1875 -1.62573,-5.3252 -6.58026,-9.1875 -12.4375,-9.1875 -4.15974,0 -7.83921,1.9601 -10.21875,5 -1.46956,-0.6419 -3.07511,-1 -4.78125,-1 -3.72792,0 -7.04902,1.6768 -9.25,4.3438 -0.96992,-4.2171 -4.73849,-7.3438 -9.25,-7.3438 -2.12346,0 -4.07434,0.6977 -5.65625,1.875 -0.45117,-0.1169 -0.9197,-0.2061 -1.375,-0.3125 -2.8935,-6.7988 -9.61359,-11.5625 -17.46875,-11.5625 z"
       id="path2985"
       inkscape:export-filename="/home/william/workspace/snap-lib/apps/home/images/cloud-front.png"
       inkscape:export-xdpi="77"
       inkscape:export-ydpi="77"
       inkscape:connector-curvature="0" />
  </g>
</svg>
